<svg width="20" height="20" viewBox="0 0 20 20" fill="none" xmlns="http://www.w3.org/2000/svg">
<path d="M11.8688 14.405C11.8688 14.7365 11.7371 15.0545 11.5026 15.2889C11.2682 15.5233 10.9503 15.655 10.6188 15.655C10.2872 15.655 9.96929 15.5233 9.73487 15.2889C9.50045 15.0545 9.36875 14.7365 9.36875 14.405V14.345C9.36875 14.0135 9.50045 13.6956 9.73487 13.4611C9.96929 13.2267 10.2872 13.095 10.6188 13.095C10.9503 13.095 11.2682 13.2267 11.5026 13.4611C11.7371 13.6956 11.8688 14.0135 11.8688 14.345V14.405ZM11.2438 6.25002H10.0225V11.25H11.2438V6.25002ZM19.75 10.625C19.75 12.4298 19.2148 14.194 18.2122 15.6946C17.2095 17.1952 15.7844 18.3648 14.117 19.0554C12.4496 19.7461 10.6149 19.9268 8.8448 19.5747C7.07473 19.2226 5.44881 18.3535 4.17265 17.0774C2.8965 15.8012 2.02743 14.1753 1.67534 12.4052C1.32325 10.6351 1.50395 8.8004 2.1946 7.13303C2.88525 5.46565 4.05483 4.04052 5.55543 3.03786C7.05602 2.03519 8.82025 1.50002 10.625 1.50002C13.0451 1.50002 15.3661 2.4614 17.0774 4.17267C18.7886 5.88394 19.75 8.20492 19.75 10.625ZM18.5 10.625C18.5 9.06749 18.0381 7.54494 17.1728 6.2499C16.3075 4.95486 15.0776 3.9455 13.6386 3.34946C12.1997 2.75342 10.6163 2.59747 9.08867 2.90133C7.56107 3.20519 6.15788 3.95521 5.05654 5.05655C3.9552 6.15789 3.20518 7.56108 2.90132 9.08868C2.59746 10.6163 2.75341 12.1997 3.34945 13.6386C3.94549 15.0776 4.95485 16.3075 6.24989 17.1728C7.54493 18.0382 9.06748 18.5 10.625 18.5C12.7129 18.4977 14.7146 17.6673 16.1909 16.1909C17.6673 14.7146 18.4977 12.7129 18.5 10.625Z" fill="black"/>
</svg>
