<svg width="22" height="23" viewBox="0 0 22 23" fill="none" xmlns="http://www.w3.org/2000/svg">
<path d="M1 4.15788V10.4736C1 10.4736 1 13.6315 8.36838 13.6315C8.99206 13.6315 9.56301 13.6089 10.0855 13.5675" stroke="black" stroke-linecap="round" stroke-linejoin="round"/>
<path d="M15.7368 4.15788V10.4736" stroke="black" stroke-linecap="round" stroke-linejoin="round"/>
<path d="M8.36838 1C15.7368 1 15.7368 4.15788 15.7368 4.15788C15.7368 4.15788 15.7368 7.31576 8.36838 7.31576C1 7.31576 1 4.15788 1 4.15788C1 4.15788 1 1 8.36838 1Z" stroke="black" stroke-linecap="round" stroke-linejoin="round"/>
<path d="M8.36838 19.9473C1 19.9473 1 16.7894 1 16.7894V10.4736" stroke="black" stroke-linecap="round" stroke-linejoin="round"/>
<path d="M20.6488 16.4386C19.9975 14.7863 18.51 13.6315 16.7791 13.6315C14.9282 13.6315 13.3555 14.9521 12.7861 16.7894" stroke="black" stroke-linecap="round" stroke-linejoin="round"/>
<path d="M18.8894 16.4385H20.6487C20.8427 16.4385 20.9999 16.2813 20.9999 16.0873V14.0994" stroke="black" stroke-linecap="round" stroke-linejoin="round"/>
<path d="M12.9302 19.2455C13.5815 20.8978 15.069 22.0525 16.7999 22.0525C18.6508 22.0525 20.2235 20.732 20.7929 18.8946" stroke="black" stroke-linecap="round" stroke-linejoin="round"/>
<path d="M14.6894 19.2455H12.9301C12.7361 19.2455 12.5789 19.4028 12.5789 19.5968V21.5847" stroke="black" stroke-linecap="round" stroke-linejoin="round"/>
</svg>
