<svg width="52" height="21" viewBox="0 0 52 21" fill="none" xmlns="http://www.w3.org/2000/svg">
<path d="M43.2128 20.232H5.48266C4.11791 20.232 2.80951 19.8796 1.8444 19.2525C0.879706 18.6252 0.337646 17.7747 0.337646 16.8875V3.50988C0.337646 2.62275 0.879706 1.77225 1.8444 1.1449C2.80948 0.517821 4.11791 0.165466 5.48266 0.165466H43.2128C44.5775 0.165466 45.8859 0.517821 46.851 1.1449C47.8157 1.77223 48.3578 2.62275 48.3578 3.50988V4.62469H50.0728C50.5276 4.62469 50.964 4.74214 51.2856 4.95117C51.6071 5.16019 51.7878 5.44387 51.7878 5.73949V14.6579C51.7878 14.9536 51.6071 15.2372 51.2856 15.4463C50.964 15.6553 50.5276 15.7727 50.0728 15.7727H48.3578V16.8875C48.3578 17.7747 47.8157 18.6252 46.851 19.2525C45.886 19.8796 44.5775 20.232 43.2128 20.232ZM5.48266 2.39508C5.02788 2.39508 4.59147 2.51253 4.26991 2.72156C3.94835 2.93058 3.76766 3.21426 3.76766 3.50988V16.8875C3.76766 17.1832 3.94835 17.4668 4.26991 17.6759C4.59147 17.8849 5.02788 18.0023 5.48266 18.0023H43.2128C43.6676 18.0023 44.104 17.8849 44.4255 17.6759C44.7471 17.4668 44.9278 17.1832 44.9278 16.8875V14.6579C44.9278 14.3623 45.1085 14.0786 45.43 13.8696C45.7516 13.6606 46.188 13.5431 46.6428 13.5431H48.3578V6.8543H46.6428C46.188 6.8543 45.7516 6.73684 45.43 6.52782C45.1085 6.3188 44.9278 6.03511 44.9278 5.73949V3.50988C44.9278 3.21426 44.7471 2.93058 44.4255 2.72156C44.104 2.51253 43.6676 2.39508 43.2128 2.39508H5.48266Z" fill="#013220"/>
</svg>
