<svg width="42" height="40" viewBox="0 0 42 40" fill="none" xmlns="http://www.w3.org/2000/svg">
<path d="M1.3125 2.5C0.964403 2.5 0.630564 2.6317 0.384422 2.86612C0.138281 3.10054 0 3.41848 0 3.75C0 4.08152 0.138281 4.39946 0.384422 4.63388C0.630564 4.8683 0.964403 5 1.3125 5H4.22625L5.27887 9.0175L9.21113 28.98C9.26743 29.2664 9.42705 29.5252 9.66239 29.7114C9.89773 29.8976 10.194 29.9997 10.5 30H13.125C11.7326 30 10.3973 30.5268 9.41269 31.4645C8.42812 32.4021 7.875 33.6739 7.875 35C7.875 36.3261 8.42812 37.5979 9.41269 38.5355C10.3973 39.4732 11.7326 40 13.125 40C14.5174 40 15.8527 39.4732 16.8373 38.5355C17.8219 37.5979 18.375 36.3261 18.375 35C18.375 33.6739 17.8219 32.4021 16.8373 31.4645C15.8527 30.5268 14.5174 30 13.125 30H31.5C30.1076 30 28.7723 30.5268 27.7877 31.4645C26.8031 32.4021 26.25 33.6739 26.25 35C26.25 36.3261 26.8031 37.5979 27.7877 38.5355C28.7723 39.4732 30.1076 40 31.5 40C32.8924 40 34.2277 39.4732 35.2123 38.5355C36.1969 37.5979 36.75 36.3261 36.75 35C36.75 33.6739 36.1969 32.4021 35.2123 31.4645C34.2277 30.5268 32.8924 30 31.5 30H34.125C34.431 29.9997 34.7273 29.8976 34.9626 29.7114C35.198 29.5252 35.3576 29.2664 35.4139 28.98L39.3514 8.98C39.3868 8.79959 39.3801 8.61396 39.3318 8.43629C39.2834 8.25863 39.1946 8.09328 39.0715 7.95201C38.9485 7.81074 38.7943 7.697 38.6199 7.61888C38.4455 7.54076 38.2552 7.50017 38.0625 7.5H7.58625L6.52312 3.4475C6.45227 3.17696 6.28848 2.93675 6.05779 2.76506C5.82711 2.59338 5.54277 2.50008 5.25 2.5H1.3125ZM15.75 35C15.75 35.663 15.4734 36.2989 14.9812 36.7678C14.4889 37.2366 13.8212 37.5 13.125 37.5C12.4288 37.5 11.7611 37.2366 11.2688 36.7678C10.7766 36.2989 10.5 35.663 10.5 35C10.5 34.337 10.7766 33.7011 11.2688 33.2322C11.7611 32.7634 12.4288 32.5 13.125 32.5C13.8212 32.5 14.4889 32.7634 14.9812 33.2322C15.4734 33.7011 15.75 34.337 15.75 35ZM34.125 35C34.125 35.663 33.8484 36.2989 33.3562 36.7678C32.8639 37.2366 32.1962 37.5 31.5 37.5C30.8038 37.5 30.1361 37.2366 29.6438 36.7678C29.1516 36.2989 28.875 35.663 28.875 35C28.875 34.337 29.1516 33.7011 29.6438 33.2322C30.1361 32.7634 30.8038 32.5 31.5 32.5C32.1962 32.5 32.8639 32.7634 33.3562 33.2322C33.8484 33.7011 34.125 34.337 34.125 35ZM29.8043 15.885L21.9293 23.385C21.8073 23.5014 21.6625 23.5938 21.503 23.6568C21.3436 23.7198 21.1726 23.7522 21 23.7522C20.8274 23.7522 20.6564 23.7198 20.497 23.6568C20.3375 23.5938 20.1927 23.5014 20.0707 23.385L16.1332 19.635C16.0112 19.5188 15.9144 19.3808 15.8484 19.229C15.7823 19.0771 15.7483 18.9144 15.7483 18.75C15.7483 18.5856 15.7823 18.4229 15.8484 18.271C15.9144 18.1192 16.0112 17.9812 16.1332 17.865C16.2553 17.7488 16.4002 17.6566 16.5596 17.5937C16.719 17.5308 16.8899 17.4984 17.0625 17.4984C17.2351 17.4984 17.406 17.5308 17.5654 17.5937C17.7248 17.6566 17.8697 17.7488 17.9918 17.865L21 20.7325L27.9457 14.115C28.0678 13.9988 28.2127 13.9066 28.3721 13.8437C28.5315 13.7808 28.7024 13.7484 28.875 13.7484C29.0476 13.7484 29.2185 13.7808 29.3779 13.8437C29.5373 13.9066 29.6822 13.9988 29.8043 14.115C29.9263 14.2312 30.0231 14.3692 30.0891 14.521C30.1552 14.6729 30.1892 14.8356 30.1892 15C30.1892 15.1644 30.1552 15.3271 30.0891 15.479C30.0231 15.6308 29.9263 15.7688 29.8043 15.885Z" fill="black"/>
</svg>
