<svg width="34" height="33" viewBox="0 0 34 33" fill="none" xmlns="http://www.w3.org/2000/svg">
<path d="M12.9344 0H1.58368C0.686096 0 0 0.718639 0 1.65819V4.53256C0 4.80892 0.211205 5.08529 0.527897 5.08529H12.9339L12.9344 0Z" fill="black"/>
<path d="M16.6302 9.01016V0.000289917H13.9905V9.01016C14.9935 8.29152 15.0463 8.12585 15.3102 8.12585C15.5744 8.12559 15.6799 8.29126 16.6302 9.0099V9.01016Z" fill="black"/>
<path d="M26.7136 17.08C27.6639 17.08 28.5612 17.2459 29.3534 17.5223V6.24594H17.6859V10.1154C17.6859 10.3365 17.5804 10.5022 17.3692 10.6129C17.2108 10.7233 16.9998 10.6681 16.8413 10.5576L15.3104 9.34122L13.7795 10.5019C13.621 10.6123 13.4101 10.6678 13.2516 10.5571C13.0932 10.4467 12.9877 10.2807 12.9877 10.0596V6.19017L1.21509 6.19042V26.145C1.21509 27.0848 1.90143 27.8032 2.79876 27.8032H18.7948C18.6363 27.0846 18.5309 26.3659 18.5309 25.5923C18.5311 20.949 22.2264 17.0795 26.714 17.0795L26.7136 17.08ZM9.29212 24.9843H6.07175C5.75507 24.9843 5.54386 24.7079 5.54386 24.4316C5.54386 24.1 5.75506 23.8788 6.07175 23.8788H9.29212C9.60881 23.8788 9.82002 24.1 9.82002 24.4316C9.82026 24.7079 9.55631 24.9843 9.29212 24.9843ZM9.29212 22.2206H6.07175C5.75507 22.2206 5.54386 21.9443 5.54386 21.6679C5.54386 21.3363 5.75506 21.1152 6.07175 21.1152H9.29212C9.60881 21.1152 9.82002 21.3363 9.82002 21.6679C9.82026 21.9443 9.55631 22.2206 9.29212 22.2206Z" fill="black"/>
<path d="M26.7135 18.1856C22.8068 18.1856 19.6392 21.5022 19.6392 25.5928C19.6392 29.6833 22.8068 33 26.7135 33C30.6202 33 33.7879 29.6834 33.7879 25.5928C33.7882 21.5577 30.6206 18.1856 26.7135 18.1856ZM30.3035 23.5475L25.2883 28.5223C25.0771 28.7435 24.7604 28.7435 24.5492 28.5223L23.071 26.9746C22.8598 26.7534 22.8598 26.4218 23.071 26.2007C23.2822 25.9796 23.5989 25.9796 23.8101 26.2007L24.8659 27.3614L29.5117 22.7733C29.7229 22.5522 30.0396 22.5522 30.2508 22.7733C30.5148 22.9947 30.5148 23.3263 30.3036 23.5474L30.3035 23.5475Z" fill="black"/>
<path d="M30.5676 4.5878V1.65819C30.5676 0.718379 29.8812 0 28.9839 0H17.686V5.14077H30.092C30.356 5.14052 30.5672 4.86415 30.5672 4.58778L30.5676 4.5878Z" fill="black"/>
</svg>
