<svg width="39" height="36" viewBox="0 0 39 36" fill="none" xmlns="http://www.w3.org/2000/svg">
<path d="M19.6044 11.0578C15.6218 11.0578 12.4135 14.1221 12.4135 17.9261C12.4135 21.7301 15.6217 24.7943 19.6044 24.7943C23.5871 24.7943 26.7953 21.7301 26.7953 17.9261C26.7953 14.1221 23.5871 11.0578 19.6044 11.0578ZM19.6044 23.7375V12.1144C22.9785 12.1144 25.6891 14.7033 25.6891 17.9262C25.6891 21.149 22.9786 23.7379 19.6044 23.7379V23.7375Z" fill="#013220"/>
<path d="M19.0513 28.598H20.1574V35.7305H19.0513V28.598Z" fill="#013220"/>
<path d="M19.0513 0.068634H20.1574V7.20115H19.0513V0.068634Z" fill="#013220"/>
<path d="M0.908325 17.3976H8.3759V18.4542H0.908325V17.3976Z" fill="#013220"/>
<path d="M30.7778 17.3976H38.2454V18.4542H30.7778V17.3976Z" fill="#013220"/>
<path d="M6.04663 30.1575L11.3268 25.1142L12.1089 25.8612L6.82873 30.9045L6.04663 30.1575Z" fill="#013220"/>
<path d="M27.0985 9.99077L32.3787 4.94748L33.1608 5.69449L27.8806 10.7378L27.0985 9.99077Z" fill="#013220"/>
<path d="M6.01599 5.72363L6.79809 4.97662L12.0783 10.0199L11.2962 10.7669L6.01599 5.72363Z" fill="#013220"/>
<path d="M27.1301 25.831L27.9122 25.084L33.1924 30.1272L32.4103 30.8743L27.1301 25.831Z" fill="#013220"/>
</svg>
