<svg width="24" height="23" viewBox="0 0 24 23" fill="none" xmlns="http://www.w3.org/2000/svg">
<path d="M22.839 3.21047C22.7441 2.45676 22.3768 1.76313 21.8054 1.25905C21.2341 0.754971 20.4979 0.474896 19.7341 0.4711H4.41647C3.65464 0.474502 2.91996 0.752828 2.34891 1.25437C1.77786 1.75591 1.40927 2.44656 1.31162 3.19802L0.936035 6.27358C0.936533 6.87702 1.06631 7.47343 1.31673 8.02307C1.56714 8.57272 1.93245 9.06298 2.3883 9.46121V19.6218C2.3883 20.4474 2.71806 21.2392 3.30503 21.8229C3.89199 22.4067 4.68809 22.7347 5.51819 22.7347H18.6262C19.4563 22.7347 20.2524 22.4067 20.8393 21.8229C21.4263 21.2392 21.7561 20.4474 21.7561 19.6218V9.46121C22.2131 9.06356 22.5795 8.57355 22.831 8.02387C23.0825 7.4742 23.2133 6.8775 23.2146 6.27358L22.839 3.21047ZM14.5886 21.4895H9.58079V16.4092C9.58079 15.9139 9.77864 15.4388 10.1308 15.0885C10.483 14.7383 10.9607 14.5415 11.4587 14.5415H12.7107C13.2087 14.5415 13.6864 14.7383 14.0386 15.0885C14.3908 15.4388 14.5886 15.9139 14.5886 16.4092V21.4895ZM20.5104 19.6218C20.5104 20.1171 20.3125 20.5922 19.9603 20.9425C19.6081 21.2927 19.1305 21.4895 18.6324 21.4895H15.8406V16.4092C15.8406 15.5836 15.5108 14.7919 14.9238 14.2081C14.3369 13.6243 13.5408 13.2963 12.7107 13.2963H11.4587C10.6286 13.2963 9.83252 13.6243 9.24555 14.2081C8.65859 14.7919 8.32883 15.5836 8.32883 16.4092V21.4895H5.51819C5.02013 21.4895 4.54247 21.2927 4.19029 20.9425C3.83811 20.5922 3.64026 20.1171 3.64026 19.6218V10.1959C4.13285 10.3963 4.66046 10.4979 5.19268 10.4947C5.80725 10.4975 6.41497 10.3663 6.97304 10.1103C7.53111 9.85432 8.02595 9.47973 8.42273 9.01295C8.47927 8.95699 8.55579 8.92557 8.63556 8.92557C8.71533 8.92557 8.79185 8.95699 8.84839 9.01295C9.24517 9.47973 9.74002 9.85432 10.2981 10.1103C10.8562 10.3663 11.4639 10.4975 12.0784 10.4947C12.6957 10.4973 13.3061 10.3661 13.8672 10.1102C14.4282 9.8543 14.9265 9.47986 15.3273 9.01295C15.3529 8.98553 15.3838 8.96364 15.4183 8.94865C15.4528 8.93365 15.49 8.92587 15.5276 8.92579C15.5671 8.92555 15.6063 8.93314 15.6428 8.9481C15.6793 8.96307 15.7125 8.98511 15.7404 9.01295C16.1372 9.47973 16.632 9.85432 17.1901 10.1103C17.7482 10.3663 18.3559 10.4975 18.9705 10.4947C19.4986 10.4979 20.0221 10.3963 20.5104 10.1959V19.6218ZM18.9705 9.24953C18.5381 9.25154 18.1104 9.16017 17.717 8.98174C17.3236 8.8033 16.9739 8.54205 16.6919 8.21604C16.5509 8.04847 16.3748 7.91369 16.1757 7.82118C15.9767 7.72867 15.7598 7.68069 15.5401 7.68062H15.5276C15.3088 7.67865 15.0923 7.72446 14.8933 7.81483C14.6942 7.90519 14.5176 8.0379 14.3758 8.20359C14.0854 8.51859 13.7323 8.77011 13.339 8.94217C12.9457 9.11423 12.5207 9.20308 12.091 9.20308C11.6613 9.20308 11.2363 9.11423 10.8429 8.94217C10.4496 8.77011 10.0965 8.51859 9.80614 8.20359C9.66046 8.0393 9.48129 7.90772 9.28055 7.81759C9.0798 7.72746 8.86207 7.68085 8.64182 7.68085C8.42157 7.68085 8.20384 7.72746 8.00309 7.81759C7.80235 7.90772 7.62318 8.0393 7.4775 8.20359C7.08237 8.66218 6.55705 8.99122 5.97051 9.14753C5.38397 9.30384 4.76361 9.28011 4.19087 9.07946C3.61813 8.87881 3.11978 8.51061 2.76122 8.0232C2.40266 7.53579 2.20066 6.95194 2.18173 6.34829L2.55732 3.35989C2.61677 2.90828 2.83828 2.49324 3.18106 2.19122C3.52384 1.88919 3.9648 1.72052 4.42273 1.71627H19.7341C20.1934 1.71601 20.6368 1.88311 20.9805 2.18597C21.3242 2.48884 21.5445 2.90646 21.5996 3.35989L21.9626 6.29848C21.9554 7.08431 21.6361 7.83543 21.0745 8.38819C20.5129 8.94095 19.7543 9.25055 18.9642 9.24953H18.9705Z" fill="#013220"/>
</svg>
