<svg width="16" height="14" viewBox="0 0 16 14" fill="none" xmlns="http://www.w3.org/2000/svg">
<path d="M13.8346 2.01697C13.4925 1.67579 13.0871 1.40494 12.6413 1.21988C12.1955 1.03482 11.7181 0.939194 11.2364 0.938455C10.7548 0.937716 10.2783 1.03188 9.83412 1.21557C9.38997 1.39926 8.98689 1.66888 8.64791 2.00902L7.94439 2.71459L7.23457 2.00685C6.54372 1.318 5.60915 0.930176 4.63646 0.928684C3.66377 0.927191 2.73264 1.31215 2.04791 1.99889C1.36318 2.68562 0.980942 3.61787 0.985276 4.59055C0.98961 5.56322 1.38017 6.49666 2.07102 7.1855L7.99061 13.0878L13.8577 7.20359C14.1968 6.86361 14.4653 6.45974 14.6477 6.01506C14.83 5.57037 14.9228 5.09358 14.9207 4.61193C14.9185 4.13028 14.8215 3.6532 14.6351 3.20795C14.4488 2.76269 14.1767 2.358 13.8346 2.01697Z" stroke="#385D07" stroke-width="1.6" stroke-linecap="round" stroke-linejoin="round"/>
</svg>
