<svg width="20" height="19" viewBox="0 0 20 19" fill="none" xmlns="http://www.w3.org/2000/svg">
<path d="M7.91667 18.7067C7.86667 18.7067 7.8175 18.6975 7.76917 18.68C7.6075 18.6192 7.5 18.4633 7.5 18.29V13.3333H1.69417C1.1875 13.3333 0 13.3333 0 12.1417V1.69417C0 0.76 0.76 0 1.69417 0H18.3167C19.245 0 20 0.76 20 1.69417V12.1417C20 13.3333 18.8208 13.3333 18.3167 13.3333H12.7583C12.2958 13.9383 11.1133 15.285 8.23 18.565C8.14833 18.6575 8.03417 18.7067 7.91667 18.7067ZM1.69417 0.833333C1.22 0.833333 0.833333 1.22 0.833333 1.69417V12.1417C0.833333 12.3575 0.833333 12.5 1.69417 12.5H7.91667C8.14667 12.5 8.33333 12.6867 8.33333 12.9167V17.185C10.0567 15.2233 12.1375 12.8508 12.29 12.6667C12.3692 12.5625 12.4917 12.5 12.6233 12.5H18.3167C19.1667 12.5 19.1667 12.365 19.1667 12.1417V1.69417C19.1667 1.22 18.7858 0.833333 18.3167 0.833333H1.69417Z" fill="black"/>
<path d="M13.3333 4.16665H4.16667C3.93667 4.16665 3.75 3.97999 3.75 3.74999C3.75 3.51999 3.93667 3.33332 4.16667 3.33332H13.3333C13.5633 3.33332 13.75 3.51999 13.75 3.74999C13.75 3.97999 13.5633 4.16665 13.3333 4.16665Z" fill="black"/>
<path d="M10.8333 6.66666H4.16667C3.93667 6.66666 3.75 6.47999 3.75 6.24999C3.75 6.01999 3.93667 5.83333 4.16667 5.83333H10.8333C11.0633 5.83333 11.25 6.01999 11.25 6.24999C11.25 6.47999 11.0633 6.66666 10.8333 6.66666Z" fill="black"/>
<path d="M13.3333 9.16665H4.16667C3.93667 9.16665 3.75 8.97999 3.75 8.74999C3.75 8.51999 3.93667 8.33332 4.16667 8.33332H13.3333C13.5633 8.33332 13.75 8.51999 13.75 8.74999C13.75 8.97999 13.5633 9.16665 13.3333 9.16665Z" fill="black"/>
</svg>
