<svg width="30" height="31" viewBox="0 0 30 31" fill="none" xmlns="http://www.w3.org/2000/svg">
<path d="M27.2569 12.8019H26.25V12.75H15V17.75H22.0644C21.0338 20.6606 18.2644 22.75 15 22.75C10.8581 22.75 7.5 19.3919 7.5 15.25C7.5 11.1081 10.8581 7.75 15 7.75C16.9119 7.75 18.6513 8.47125 19.9756 9.64937L23.5113 6.11375C21.2788 4.03312 18.2925 2.75 15 2.75C8.09687 2.75 2.5 8.34687 2.5 15.25C2.5 22.1531 8.09687 27.75 15 27.75C21.9031 27.75 27.5 22.1531 27.5 15.25C27.5 14.4119 27.4138 13.5938 27.2569 12.8019Z" fill="#FFC107"/>
<path d="M3.94124 9.43187L8.04811 12.4438C9.15936 9.6925 11.8506 7.75 15 7.75C16.9119 7.75 18.6512 8.47125 19.9756 9.64937L23.5112 6.11375C21.2787 4.03312 18.2925 2.75 15 2.75C10.1987 2.75 6.03499 5.46062 3.94124 9.43187Z" fill="#FF3D00"/>
<path d="M15 27.75C18.2288 27.75 21.1625 26.5144 23.3806 24.505L19.5119 21.2313C18.2147 22.2177 16.6297 22.7513 15 22.75C11.7488 22.75 8.98814 20.6769 7.94814 17.7838L3.87189 20.9244C5.94064 24.9725 10.1419 27.75 15 27.75Z" fill="#4CAF50"/>
<path d="M27.2569 12.8019H26.25V12.75H15V17.75H22.0644C21.5714 19.1353 20.6833 20.3457 19.51 21.2319L19.5119 21.2306L23.3806 24.5044C23.1069 24.7531 27.5 21.5 27.5 15.25C27.5 14.4119 27.4138 13.5938 27.2569 12.8019Z" fill="#1976D2"/>
</svg>
