<svg width="18" height="24" viewBox="0 0 18 24" fill="none" xmlns="http://www.w3.org/2000/svg">
<path d="M15.75 15H2.25C1.42316 15 0.75 14.3272 0.75 13.5V12C0.75 11.1728 1.42316 10.5 2.25 10.5H15.75C16.5768 10.5 17.25 11.1728 17.25 12V13.5C17.25 14.3272 16.5768 15 15.75 15ZM2.25 12V13.5H15.7509L15.7502 12H2.25Z" fill="#013220"/>
<path d="M9.68785 24H8.31239C5.73492 24 3.55739 22.155 3.13354 19.6131L2.26049 14.3734C2.22383 14.156 2.28544 13.9336 2.42824 13.7652C2.57037 13.5972 2.7798 13.5001 3.0003 13.5001H15.0003C15.2208 13.5001 15.4302 13.5972 15.5724 13.7652C15.7152 13.9337 15.7768 14.156 15.7401 14.3734L14.8671 19.6131C14.443 22.1551 12.2655 24 9.6882 24H9.68785ZM3.88542 15L4.61267 19.3663C4.91518 21.182 6.47159 22.4999 8.31209 22.4999H9.68755C11.5281 22.4999 13.0845 21.1818 13.387 19.3663L14.1142 15H3.88542Z" fill="#013220"/>
<path d="M11.0618 12C10.9512 12 10.8392 11.9756 10.733 11.9235C10.3609 11.7415 10.2072 11.2922 10.3888 10.92C10.96 9.75316 11.2502 8.60223 11.2502 7.49999C11.2502 7.00529 11.1946 6.51929 11.0809 6.01508C10.6751 4.21255 9.63952 2.69785 9.00018 1.89509C8.36084 2.6978 7.32507 4.2122 6.91942 6.01456C6.80592 6.51929 6.75017 7.00512 6.75017 7.49999C6.75017 8.6084 7.04164 9.75805 7.6167 10.9163C7.80136 11.2873 7.64968 11.7373 7.27837 11.9216C6.90839 12.1063 6.45739 11.9543 6.27358 11.5836C5.59455 10.2159 5.25037 8.84212 5.25037 7.5C5.25037 6.90133 5.32001 6.29045 5.45612 5.68479C6.1552 2.57816 8.37374 0.316502 8.46751 0.221359C8.75027 -0.0620677 9.24983 -0.0620677 9.53243 0.221359C9.62618 0.316279 11.8447 2.57799 12.5441 5.68479C12.6804 6.29015 12.7499 6.90103 12.7499 7.4997C12.7499 8.83265 12.4085 10.2052 11.7362 11.5797C11.6058 11.8455 11.3393 11.9997 11.0617 11.9997L11.0618 12Z" fill="#013220"/>
<path d="M14.9474 12C14.7605 12 14.5739 11.9307 14.4281 11.7912C14.1292 11.5045 14.1197 11.0295 14.4061 10.7307C14.5585 10.5718 14.7108 10.3934 14.8493 10.2077C16.3141 8.25921 16.4554 5.67171 16.4189 4.37442C15.4287 4.63374 13.6995 5.22321 12.2998 6.41999C11.9871 6.68802 11.5116 6.65253 11.2429 6.33712C10.9734 6.02222 11.0107 5.54894 11.325 5.27941C13.742 3.21288 16.8664 2.73459 16.9984 2.71518C17.1991 2.68438 17.3975 2.73711 17.5572 2.85731C17.7176 2.97701 17.823 3.15614 17.8502 3.35385C17.8758 3.53884 18.4509 7.91214 16.0498 11.1076C15.8762 11.3394 15.6872 11.5621 15.4888 11.7689C15.3417 11.9224 15.1446 11.9995 14.9476 11.9995L14.9474 12Z" fill="#013220"/>
<path d="M3.05275 12C2.8557 12 2.65866 11.9228 2.5115 11.7693C2.31312 11.5624 2.12411 11.3398 1.94969 11.1072C-0.450481 7.91234 0.124404 3.53907 0.150204 3.35392C0.177325 3.15621 0.282796 2.97708 0.443172 2.85738C0.603552 2.73701 0.804277 2.68595 1.00199 2.71525C1.1339 2.73467 4.25827 3.21295 6.67542 5.27948C6.98964 5.54901 7.02698 6.02211 6.75745 6.33719C6.48859 6.65326 6.01246 6.68842 5.70059 6.42006C4.29436 5.2174 2.56868 4.63009 1.58146 4.37295C1.5448 5.67006 1.68609 8.25803 3.15025 10.2071C3.28937 10.3934 3.44171 10.5719 3.59403 10.7308C3.88031 11.0296 3.87093 11.5045 3.5721 11.7913C3.42646 11.9308 3.23962 12.0001 3.0528 12.0001L3.05275 12Z" fill="#013220"/>
</svg>
