<svg width="10" height="9" viewBox="0 0 10 9" fill="none" xmlns="http://www.w3.org/2000/svg">
<path d="M9.28815 0.749352C8.82451 0.31213 8.2112 0.068634 7.57394 0.068634C6.93668 0.068634 6.32335 0.31213 5.85973 0.749352L5.00006 1.55931L4.14038 0.749352C3.67475 0.31213 3.05984 0.0690915 2.42126 0.0695486C1.78515 0.0675399 1.17296 0.311039 0.711969 0.749352C0.258154 1.16783 0 1.75706 0 2.37418C0 2.99154 0.258143 3.58072 0.711969 3.99901L1.57164 4.81903L5 8.06863L8.42836 4.81903L9.28803 3.99901C9.74185 3.58076 10 2.99154 10 2.37418C10 1.75706 9.74197 1.16787 9.28815 0.749352Z" fill="#013220"/>
</svg>
