<svg width="33" height="27" viewBox="0 0 33 27" fill="none" xmlns="http://www.w3.org/2000/svg">
<path d="M1.33739 15.5261C1.19226 15.495 1.04686 15.4574 0.894043 15.4263C2.77468 9.96713 10.9778 1.19876 11.3683 0.781572C11.5122 0.628415 11.7354 0.538483 11.9722 0.538483C12.2089 0.538483 12.4321 0.628415 12.576 0.781572C12.6065 0.812662 15.2366 3.62329 17.8816 7.0073H17.8819C15.9615 7.72886 14.3233 8.86914 13.1481 10.302C11.9729 11.7351 11.3066 13.405 11.2229 15.1275C11.0852 15.1213 10.9478 15.1213 10.8024 15.1213C9.6136 15.1016 8.42869 15.2383 7.29345 15.5263C6.3282 15.7691 5.32166 15.8847 4.31185 15.8691C3.30433 15.8854 2.30015 15.7698 1.33765 15.5263L1.33739 15.5261Z" fill="#013220"/>
<path d="M19.4341 24.4568C17.3643 25.9208 14.7129 26.7224 11.9722 26.7128C8.93197 26.7099 6.01721 25.724 3.8675 23.9715C1.71754 22.2191 0.508055 19.8432 0.504517 17.3649C0.505796 17.127 0.528834 16.8896 0.573375 16.6544C0.649914 16.6732 0.733871 16.6917 0.810409 16.7105C1.94335 16.9976 3.12544 17.1345 4.31193 17.1155C5.5007 17.1347 6.68535 16.9981 7.82085 16.7105C8.7859 16.4668 9.79263 16.351 10.8024 16.3677C10.9629 16.3677 11.116 16.3677 11.2612 16.374C11.4775 18.2325 12.3713 19.9957 13.8281 21.4364C15.2846 22.877 17.2371 23.9291 19.434 24.4568L19.4341 24.4568Z" fill="#013220"/>
<path d="M26.4982 16.5607V17.6326C26.4982 17.8788 26.2535 18.0783 25.9514 18.0783C25.6496 18.0783 25.4049 17.8788 25.4049 17.6326V16.5607C25.4049 16.3147 25.6496 16.1152 25.9514 16.1152C26.2535 16.1152 26.4982 16.3147 26.4982 16.5607Z" fill="#013220"/>
<path d="M22.6752 7.39336C20.0394 7.39336 17.5114 8.24696 15.6478 9.76624C13.7838 11.2857 12.7368 13.3464 12.7368 15.4952C12.7368 17.644 13.7838 19.7045 15.6478 21.2241C17.5115 22.7434 20.0396 23.597 22.6752 23.597C25.3113 23.597 27.8393 22.7434 29.7033 21.2241C31.567 19.7047 32.6142 17.644 32.6142 15.4952C32.6117 13.3472 31.5637 11.2878 29.7004 9.76891C27.8372 8.25006 25.3107 7.39581 22.6756 7.39373L22.6752 7.39336ZM17.3238 14.4294V13.3576C17.3238 12.7531 17.7193 12.1945 18.3615 11.8921C19.0037 11.59 19.795 11.59 20.4372 11.8921C21.0795 12.1945 21.4749 12.753 21.4749 13.3576V14.4294C21.4749 15.0339 21.0795 15.5925 20.4372 15.8946C19.795 16.197 19.0038 16.197 18.3615 15.8946C17.7193 15.5925 17.3238 15.0339 17.3238 14.4294ZM21.2228 18.9974C21.0221 19.3004 20.5583 19.4133 20.1868 19.2499C19.8151 19.0863 19.6767 18.7082 19.8771 18.4054L24.1278 11.9927C24.3285 11.6898 24.7921 11.5769 25.1638 11.7403C25.5352 11.9038 25.6739 12.282 25.4735 12.5847L21.2228 18.9974ZM28.0267 17.6326C28.0267 18.237 27.631 18.7956 26.989 19.098C26.3468 19.4001 25.5555 19.4001 24.9133 19.098C24.271 18.7956 23.8753 18.2371 23.8753 17.6326V16.5607C23.8753 15.9562 24.271 15.3977 24.9133 15.0955C25.5555 14.7931 26.3468 14.7931 26.989 15.0955C27.631 15.3976 28.0267 15.9562 28.0267 16.5607V17.6326ZM19.3958 12.915C19.0963 12.916 18.8539 13.1134 18.8529 13.3576V14.4294C18.8529 14.6754 19.0976 14.8749 19.3994 14.8749C19.7014 14.8749 19.9462 14.6754 19.9462 14.4294V13.3576C19.9451 13.2393 19.8865 13.1264 19.7834 13.0433C19.6802 12.9603 19.5407 12.9142 19.3958 12.915Z" fill="#013220"/>
</svg>
