<svg width="20" height="20" viewBox="0 0 20 20" fill="none" xmlns="http://www.w3.org/2000/svg">
<path d="M8.33333 13.3333L8.33333 15C8.33333 15.442 8.50893 15.866 8.82149 16.1785C9.13405 16.4911 9.55797 16.6667 10 16.6667L15.8333 16.6667C16.2754 16.6667 16.6993 16.4911 17.0118 16.1785C17.3244 15.866 17.5 15.442 17.5 15L17.5 5.00001C17.5 4.55798 17.3244 4.13406 17.0118 3.82149C16.6993 3.50893 16.2754 3.33334 15.8333 3.33334L10 3.33334C9.55797 3.33334 9.13405 3.50893 8.82149 3.8215C8.50893 4.13406 8.33333 4.55798 8.33333 5.00001L8.33333 6.66667" stroke="black" stroke-linecap="round" stroke-linejoin="round"/>
<path d="M14.1667 10L2.50008 10M2.50008 10L5.00008 12.5M2.50008 10L5.00008 7.5" stroke="black" stroke-linecap="round" stroke-linejoin="round"/>
</svg>
