<svg width="20" height="20" viewBox="0 0 20 20" fill="none" xmlns="http://www.w3.org/2000/svg">
<path fill-rule="evenodd" clip-rule="evenodd" d="M13.7542 4.97375L15.4527 2.49074C13.8823 2.58428 11.983 2.95311 10.1606 3.4803C8.9223 3.83855 7.54325 3.7845 6.26115 3.54795C5.85735 3.47345 5.45955 3.38015 5.0744 3.27405L6.2281 4.9725C8.58385 5.8421 11.398 5.8425 13.7542 4.97375ZM5.64075 5.81825C8.3511 6.89425 11.6375 6.8939 14.3475 5.81725C15.4494 6.96035 16.5875 8.38285 17.4645 9.8708C18.3813 11.4263 18.96 12.9648 18.998 14.2862C19.034 15.5367 18.5947 16.6141 17.3571 17.4413C16.0455 18.3179 13.7601 18.9622 10.012 18.9985C6.26285 19.0347 3.97395 18.434 2.65867 17.5837C1.42088 16.7834 0.973 15.7177 1.00122 14.4601C1.03106 13.1307 1.60309 11.5702 2.51792 9.98175C3.39125 8.46535 4.5297 7.00515 5.64075 5.81825ZM4.831 2.15975C5.34465 2.32143 5.8888 2.46236 6.4426 2.56453C7.64145 2.78574 8.84935 2.81864 9.8827 2.5197C11.196 2.13978 12.5746 1.83192 13.8665 1.64955C12.7641 1.28663 11.4313 1 10.0217 1C7.98715 1 6.0984 1.59697 4.831 2.15975ZM3.87345 1.50616C5.2259 0.82873 7.51245 0 10.0217 0C12.4844 0 14.7154 0.798315 16.062 1.46837C16.0846 1.47962 16.107 1.49084 16.1291 1.50202C16.4919 1.68539 16.7868 1.85785 17 2L14.9478 5C19.6787 9.83635 25.3251 19.8505 10.0217 19.9984C-5.28178 20.1463 0.26587 10.0213 5.0379 5L3 2C3.1426 1.90628 3.321 1.79939 3.5311 1.68488C3.6373 1.62701 3.75155 1.5672 3.87345 1.50616Z" fill="#333333"/>
<path d="M9.14435 8.5H10.8557V9.3H12.567V10.9H9.14435L9.06735 10.9064C8.9687 10.9231 8.87945 10.9717 8.8152 11.0436C8.75095 11.1155 8.7157 11.2063 8.7157 11.3C8.7157 11.3937 8.75095 11.4845 8.8152 11.5564C8.87945 11.6284 8.9687 11.6769 9.06735 11.6936L9.14435 11.7H10.8557L10.996 11.704C11.551 11.7369 12.0705 11.9705 12.4444 12.3553C12.8182 12.7402 13.0171 13.246 12.9989 13.7657C12.9806 14.2853 12.7467 14.7779 12.3466 15.1389C11.9465 15.5001 11.4118 15.7013 10.8557 15.7V16.5H9.14435V15.7H7.43305V14.1H10.8557L10.9327 14.0936C11.0313 14.0769 11.1206 14.0284 11.1848 13.9564C11.2491 13.8845 11.2843 13.7937 11.2843 13.7C11.2843 13.6063 11.2491 13.5155 11.1848 13.4436C11.1206 13.3717 11.0313 13.3231 10.9327 13.3064L10.8557 13.3H9.14435L9.00405 13.296C8.44905 13.2632 7.92955 13.0296 7.55565 12.6447C7.1818 12.2599 6.9829 11.754 7.00115 11.2344C7.0194 10.7147 7.25335 10.2222 7.6534 9.8611C8.05355 9.49995 8.58825 9.2987 9.14435 9.3V8.5Z" fill="#333333"/>
</svg>
