<svg width="30" height="22" viewBox="0 0 30 22" fill="none" xmlns="http://www.w3.org/2000/svg">
<path d="M28.5498 6.5317C28.338 6.34801 28.0761 6.23108 27.7973 6.19575C27.5185 6.16041 27.2355 6.20827 26.9841 6.33325L21.0909 9.25161L16.1707 1.12339C16.0442 0.914817 15.8657 0.742284 15.6525 0.622518C15.4392 0.502753 15.1985 0.439819 14.9536 0.439819C14.7087 0.439819 14.4679 0.502753 14.2547 0.622518C14.0414 0.742284 13.8629 0.914817 13.7364 1.12339L8.81625 9.25511L2.92541 6.33675C2.67463 6.21288 2.39266 6.16544 2.11488 6.20038C1.83709 6.23531 1.57587 6.35107 1.36399 6.53312C1.15211 6.71517 0.999015 6.95541 0.923912 7.22368C0.848808 7.49196 0.855046 7.77631 0.94184 8.04108L5.28456 21.2741C5.32822 21.407 5.40135 21.5285 5.49854 21.6296C5.59574 21.7307 5.71451 21.8087 5.8461 21.858C5.97769 21.9073 6.11873 21.9266 6.25882 21.9144C6.3989 21.9023 6.53445 21.859 6.65545 21.7877C6.68479 21.7702 9.68597 20.0507 14.9536 20.0507C20.2212 20.0507 23.2223 21.7702 23.2493 21.7866C23.3704 21.8585 23.5062 21.9024 23.6466 21.915C23.787 21.9276 23.9285 21.9086 24.0606 21.8593C24.1926 21.8101 24.3118 21.7319 24.4093 21.6306C24.5068 21.5293 24.5801 21.4074 24.6238 21.2741L28.9665 8.04458C29.0558 7.77974 29.0638 7.49448 28.9896 7.22507C28.9154 6.95567 28.7623 6.71431 28.5498 6.5317ZM23.1695 19.6807C21.7611 19.0865 18.9536 18.183 14.9536 18.183C10.9536 18.183 8.14606 19.0865 6.73761 19.6807L3.06508 8.49401L8.35498 11.117C8.67518 11.2741 9.0429 11.3062 9.3857 11.207C9.72851 11.1078 10.0215 10.8846 10.2071 10.5812L14.9536 2.73433L19.7 10.5789C19.8856 10.8819 20.1784 11.105 20.5209 11.2042C20.8635 11.3033 21.2309 11.2714 21.551 11.1147L26.8421 8.49401L23.1695 19.6807Z" fill="#71B636"/>
</svg>
