<svg width="33" height="32" viewBox="0 0 33 32" fill="none" xmlns="http://www.w3.org/2000/svg">
<path d="M10.6066 15.5686V10.0329H11.7851C13.0349 10.0314 14.233 9.5644 15.1167 8.7342C16.0004 7.904 16.4976 6.77842 16.4991 5.60434V2.28292H12.9636C11.7568 2.28478 10.5972 2.72377 9.72624 3.50852C9.11596 2.46755 8.21974 1.59935 7.13093 0.994348C6.04211 0.389344 4.80054 0.0696736 3.53553 0.068634H0V3.39006C0.00218332 5.15122 0.747868 6.83967 2.07348 8.085C3.39908 9.33033 5.19636 10.0309 7.07105 10.0329H8.24956V15.5686H0V17.7829H16.4991V15.5686H10.6066ZM12.9636 4.4972H14.1421V5.60434C14.1415 6.19143 13.893 6.7543 13.4511 7.16943C13.0092 7.58456 12.41 7.81804 11.7851 7.81863H10.6066V6.71149C10.6072 6.1244 10.8557 5.56153 11.2976 5.1464C11.7395 4.73127 12.3387 4.49779 12.9636 4.4972ZM7.07105 7.81863C5.82129 7.81716 4.62316 7.35011 3.73945 6.51991C2.85573 5.68971 2.35858 4.56414 2.35702 3.39006V2.28292H3.53553C4.78529 2.28438 5.98342 2.75143 6.86713 3.58163C7.75085 4.41183 8.248 5.53741 8.24956 6.71149V7.81863H7.07105Z" fill="#013220"/>
<path d="M0.00012207 21.1043H16.4992V23.3186H0.00012207V21.1043Z" fill="#013220"/>
<path d="M0.00012207 26.6398H16.4992V28.8541H0.00012207V26.6398Z" fill="#013220"/>
<path d="M27.1058 31.0684C25.8701 31.072 24.6647 30.7095 23.6609 30.0325C22.6571 29.3555 21.906 28.3984 21.5145 27.2973C21.1229 26.1963 21.1108 25.0073 21.4799 23.8994C21.849 22.7915 22.5805 21.8212 23.5703 21.1263V14.4613C23.5703 13.5804 23.9428 12.7355 24.6058 12.1127C25.2689 11.4898 26.1682 11.1398 27.1058 11.1398C28.0435 11.1398 28.9428 11.4898 29.6058 12.1127C30.2689 12.7355 30.6414 13.5804 30.6414 14.4613V21.1263C31.6312 21.8212 32.3627 22.7915 32.7318 23.8994C33.1009 25.0073 33.0888 26.1963 32.6972 27.2973C32.3057 28.3984 31.5546 29.3555 30.5508 30.0325C29.547 30.7095 28.3415 31.072 27.1058 31.0684ZM27.1058 13.3541C26.7934 13.3544 26.4938 13.4711 26.2729 13.6787C26.0519 13.8863 25.9276 14.1677 25.9273 14.4613V22.3552L25.3416 22.6762C24.804 22.9629 24.3569 23.3782 24.0458 23.88C23.7346 24.3817 23.5706 24.952 23.5703 25.5327C23.5703 26.4136 23.9428 27.2584 24.6058 27.8813C25.2689 28.5042 26.1682 28.8541 27.1058 28.8541C28.0435 28.8541 28.9428 28.5042 29.6058 27.8813C30.2689 27.2584 30.6414 26.4136 30.6414 25.5327C30.6413 24.9518 30.4774 24.3813 30.1662 23.8793C29.8551 23.3774 29.4078 22.9619 28.8701 22.6751L28.2843 22.3552V14.4613C28.284 14.1677 28.1598 13.8863 27.9388 13.6787C27.7179 13.4711 27.4183 13.3544 27.1058 13.3541Z" fill="#013220"/>
</svg>
