<svg width="22" height="21" viewBox="0 0 22 21" fill="none" xmlns="http://www.w3.org/2000/svg">
<path d="M10.9061 19.9484L10.7768 19.7794C13.4077 18.2208 14.4257 15.5764 14.5158 15.3309V15.3228L14.5167 15.321C14.5072 15.0515 14.5619 14.8479 14.6779 14.7104C14.5446 14.6192 14.3802 14.4909 14.1877 14.3287C13.7046 14.8024 11.0993 17.204 7.09618 18.0851L7.04018 17.8873C11.0091 17.0138 13.5772 14.6251 14.0213 14.1869C13.8569 14.044 13.6756 13.8808 13.467 13.688C13.3517 13.581 13.2307 13.4673 13.108 13.3516C12.5662 13.6441 9.37876 15.2453 4.56843 15.2453H4.52695L4.52744 15.0415H4.56843C9.22722 15.0415 12.3309 13.5269 12.9481 13.1989C12.566 12.8313 12.1649 12.435 11.7539 12.0165C11.5003 11.7588 11.2411 11.4925 10.9834 11.2237C10.7365 11.2806 9.86076 11.4809 8.96474 11.6563C8.55013 11.7381 8.06078 11.7705 7.54855 11.7705C5.7418 11.7705 3.65002 11.3704 3.53784 11.3488L3.58755 11.1498C3.62225 11.1565 7.08697 11.8196 8.91442 11.4574C9.70525 11.3025 10.481 11.1282 10.8187 11.0509C10.2178 10.4226 9.62067 9.7785 9.08501 9.18015C8.73479 8.78978 8.42557 8.43389 8.16185 8.11924C7.81599 8.17933 7.47547 8.20675 7.14539 8.20675C4.81476 8.20675 2.97785 6.89312 2.95678 6.87792L3.10413 6.72094C3.12705 6.73742 5.3644 8.33289 8.00833 7.93798C7.56336 7.40058 7.26998 7.00548 7.13958 6.76626C6.67527 5.91788 3.98441 2.20906 3.16858 1.08968C3.12388 1.59129 2.77915 2.04516 2.11036 2.49393C1.92024 2.62136 1.82857 2.74509 1.83035 2.87168C1.83519 3.20126 2.43926 3.58553 3.13924 4.03045C3.38859 4.18913 3.64664 4.35321 3.90247 4.53021C4.8453 5.18257 5.37191 5.93846 5.1831 6.36847C5.11467 6.52445 4.9281 6.70473 4.41036 6.67092C4.03303 6.64733 3.66329 6.55215 3.31177 6.38864C2.19351 5.86714 1.53986 4.79601 1.31506 4.36982C1.21225 4.51927 1.07216 4.74655 1.03423 4.92071C0.690473 6.45425 0.744539 6.99721 4.15665 8.20785C5.23925 8.59196 5.96488 8.77809 6.44518 8.90123C7.53199 9.17981 7.55782 9.20665 7.82459 10.3281C7.87204 10.5268 7.78731 10.6385 7.70791 10.6973C7.19824 11.0753 5.1902 10.417 2.81527 9.58493C2.03366 9.31118 1.22672 9.02848 1.02786 9.01557C0.932321 9.18277 0.680876 10.0817 0.919087 10.9139C1.09452 11.5272 1.48751 11.9566 2.08709 12.1909C2.53623 12.366 3.69874 12.3111 4.93 12.2525C6.74323 12.166 8.61827 12.0772 9.26817 12.6082C9.42198 12.7337 9.50203 12.8892 9.50622 13.0701C9.51155 13.3082 9.40374 13.5069 9.18538 13.6606C7.82823 14.6172 2.29181 13.5285 1.2428 13.311C1.33092 13.8704 1.73521 15.885 2.99728 16.0856C5.33035 16.4589 7.52592 15.8817 8.97859 15.4993C9.88643 15.2606 10.4343 15.1165 10.6711 15.2892C10.757 15.352 10.7931 15.4466 10.7779 15.5713C10.5793 17.2456 4.05997 17.0507 2.8333 16.999C3.05731 17.4279 3.79761 18.6752 5.03936 19.1238C5.71979 19.3696 6.45493 19.3403 7.22345 19.036C7.56124 18.9021 8.03861 18.6648 8.54395 18.4134C10.0875 17.6459 11.8373 16.776 12.3123 17.3697C12.375 17.448 12.3905 17.541 12.357 17.6389C12.0928 18.409 8.32976 19.7438 7.45068 20.0464C7.70003 20.3079 8.65112 21.0144 11.4488 20.6859C12.4194 20.5723 13.1836 20.1928 13.7194 19.5582C14.8251 18.2496 14.6458 16.3058 14.5738 15.7884C14.1841 16.6612 13.1041 18.6462 10.9062 19.9485L10.9061 19.9484Z" fill="#013220"/>
<path d="M14.8477 14.6959H14.8492L14.8477 14.694V14.6959Z" fill="#013220"/>
<path d="M15.3653 14.5519C15.6247 14.6313 15.9256 14.765 16.2741 14.9195C17.2996 15.3747 18.5765 15.9415 19.6267 15.4853C20.4383 15.1332 21.015 14.1896 21.3406 12.6804C21.9347 9.93179 21.6715 9.24605 21.5304 9.07872C21.5191 9.06508 21.5082 9.05486 21.4991 9.04761C21.0044 9.67295 18.3481 12.9687 17.2737 13.0142C17.1345 13.017 17.0192 12.9766 16.9353 12.8892C16.3587 12.2847 17.3402 11.3778 18.4768 10.328C18.9937 9.85066 19.5279 9.35715 19.948 8.86263C20.8681 7.77957 20.61 7.1295 19.8947 6.43183C19.3386 5.88745 19.0185 5.63233 18.8659 5.52192C18.5255 6.29844 16.7613 10.2493 15.737 11.0741C15.1726 11.5277 14.1901 11.9876 13.8737 11.7064C13.6044 11.4668 13.9591 10.891 14.9586 9.9459C17.2452 7.78346 17.3922 6.16843 17.276 5.39816C17.1844 4.7893 16.862 4.27874 16.4142 4.03282C15.5395 3.55096 14.5231 2.96224 14.1138 2.72375C14.1373 3.80127 14.1778 8.80946 12.9429 9.54772C12.2728 9.94834 11.3974 10.2617 10.9516 9.94052C10.5911 9.68112 10.6203 9.10436 11.0381 8.22627C12.3088 5.55894 11.8448 2.66098 11.3672 2.01182C10.9634 1.46333 9.3931 1.25578 8.88277 1.20181C9.10226 2.00785 10.1105 5.87247 9.51122 6.72019C9.43811 6.82361 9.34273 6.88726 9.2283 6.90941C8.99461 6.95359 8.76366 6.86722 8.54159 6.65172C7.53162 5.6718 6.89717 2.276 7.16172 1.55265C7.23015 1.36471 7.19658 1.21725 7.05972 1.10177C6.58426 0.701437 5.08122 0.785119 4.47991 0.980735C4.10968 1.10049 3.63405 1.00801 3.31873 0.917943C4.0834 1.9659 6.86252 5.79117 7.34831 6.6778C7.48162 6.92158 7.812 7.36111 8.3044 7.94881L8.21257 8.00847V8.01003L8.30715 7.94895C8.55811 8.2504 8.85636 8.59389 9.19094 8.96851C11.3095 7.30357 10.6147 3.25629 10.6076 3.21483L10.836 3.18301C10.8673 3.35646 11.5608 7.39616 9.33456 9.1287C9.88667 9.74397 10.499 10.4031 11.1131 11.0431C11.3597 11.3005 11.6073 11.5554 11.8505 11.803C16.3816 8.17155 15.2294 4.52482 15.2171 4.48809L15.439 4.43027C15.4517 4.4682 16.6509 8.23429 12.0022 11.9569C12.4203 12.3802 12.8272 12.7825 13.2128 13.1513C13.3348 13.2672 13.4518 13.3766 13.5675 13.4843C14.1432 13.134 17.7272 10.8677 18.763 8.17175L18.9822 8.23696C17.942 10.9446 14.4101 13.2153 13.7288 13.6335C13.9156 13.8045 14.0808 13.9524 14.2295 14.0812C14.708 14.0956 19.2915 14.1761 20.2546 11.9135L20.4711 11.9852C19.5693 14.1053 15.8657 14.2913 14.596 14.2913C14.5529 14.2913 14.5165 14.2908 14.479 14.2904C14.6264 14.41 14.7516 14.5037 14.8536 14.5714C15.0534 14.4767 15.2729 14.5238 15.3657 14.5518L15.3653 14.5519Z" fill="#013220"/>
</svg>
