<svg width="28" height="22" viewBox="0 0 28 22" fill="none" xmlns="http://www.w3.org/2000/svg">
<path d="M26.5759 6.09334L26.1611 5.77693L27.0597 4.35252C27.2672 4.0361 27.1979 3.48198 26.9215 3.2445L23.2579 0.158207C23.1197 -2.83518e-07 22.9123 0 22.7049 0C22.4974 0 22.3592 0.158207 22.221 0.316415L21.4606 1.74082L20.7001 1.10771C20.4237 0.870263 20.0089 0.949503 19.7323 1.26592L17.1055 4.82711L15.3774 3.16522C15.3082 3.08598 15.3082 3.08598 15.2392 3.08598C14.9628 2.92777 14.6169 3.00674 14.4098 3.24419C13.9949 3.79806 13.5111 4.90607 14.479 6.64694C14.8938 7.43822 15.4469 7.99209 15.5851 8.07134L16.8294 9.49575C16.3455 9.65396 16.0689 9.65395 14.9628 9.73319L14.2024 9.81243C13.8567 8.86292 13.0963 8.2298 11.9902 7.99232H11.921H11.8518H11.7136H11.5754C11.5061 7.99232 11.4372 8.07156 11.4372 8.07156C11.4372 8.07156 11.3679 8.07156 11.3679 8.1508C11.2987 8.23004 11.2987 8.30901 11.2297 8.38825V8.46749C11.1605 8.54673 11.1605 8.70493 11.1605 8.7839L11.0913 13.1364C11.0913 13.2157 11.0913 13.3739 11.1605 13.4529C11.1605 13.4529 11.1605 13.5321 11.2297 13.5321C11.2297 13.6113 11.299 13.6113 11.299 13.6903L11.3682 13.7695C11.4374 13.7695 11.4374 13.8488 11.5064 13.8488C11.5064 13.8488 11.5756 13.8488 11.5756 13.928C11.5756 13.928 11.6448 13.928 11.6448 14.0073H11.714C11.9215 14.0073 12.0597 14.0865 12.1979 14.0865C12.7509 14.0865 13.2347 13.9283 13.5804 13.5326C13.7186 13.4534 13.7878 13.2952 13.926 13.137C14.8939 13.4534 16.8984 14.0865 18.7649 14.0865C19.4561 14.0865 20.0784 14.0073 20.6314 13.7701L20.7696 13.9283C21.4609 14.5614 22.2214 14.957 22.9818 15.0363H23.3274C24.0186 15.0363 24.6409 14.7199 25.0555 14.245L27.5441 10.9212C28.028 10.2881 28.0972 9.41758 27.8897 8.46807C27.6821 7.51772 27.1983 6.72644 26.576 6.09332L26.5759 6.09334ZM22.5667 2.69038L23.0505 1.978L25.5391 4.11479L25.0553 4.90607L22.7741 2.92779L22.5667 2.69038ZM20.4235 2.84886L21.1839 3.48197L21.4603 3.71942C21.3911 3.87762 21.2529 4.11507 21.1839 4.27329C21.0457 4.51073 20.9765 4.74819 20.8383 4.9064C20.8383 4.98564 20.7691 4.98564 20.7691 5.0646C20.6999 5.22281 20.6309 5.38102 20.4927 5.53951L20.4235 5.61875C20.3543 5.77695 20.2853 5.93516 20.1471 6.0144L20.0779 6.09364C20.0086 6.25185 19.8704 6.33109 19.8015 6.4893V6.56854C19.7322 6.72674 19.594 6.80598 19.5251 6.88495C19.4558 6.96419 19.3869 7.1224 19.2487 7.20136C19.1795 7.28061 19.1105 7.35957 18.9723 7.43881C18.6959 7.67626 18.4884 7.83447 18.35 7.91372C18.2808 7.91372 18.2118 7.99296 18.2118 7.99296C18.1426 7.99296 18.1426 8.0722 18.0736 8.0722H17.9354H17.8662H17.7969H17.7277L17.1054 7.35982L17.8659 6.33105L20.4235 2.84886ZM16.0686 6.33079C15.8612 6.01438 15.5848 5.61842 15.4463 5.22278L16.2757 6.01406L16.0686 6.33079ZM12.5429 12.3452L12.6121 9.81273C12.9578 10.1291 13.1652 10.5251 13.096 11.2371C13.096 11.5535 13.0267 12.0284 12.8196 12.1866C12.7503 12.2659 12.6811 12.3452 12.5429 12.3452ZM14.4787 11.5539V11.3164L15.0318 11.2372C16.6909 11.1579 16.6909 11.1579 17.866 10.7623L18.0042 10.683L19.4559 12.2657C17.9349 12.5034 15.723 11.9495 14.4787 11.5539ZM26.5071 9.81273L24.0185 13.1365C23.8803 13.374 23.5347 13.4529 23.1891 13.374C22.7053 13.2947 22.2212 13.0575 21.8066 12.6616L21.3918 12.1867L18.834 9.41677C18.9032 9.33753 19.0414 9.33753 19.1104 9.25856C19.1796 9.25856 19.1796 9.17932 19.2486 9.17932C19.3868 9.10008 19.5942 8.94187 19.7324 8.78366C19.8016 8.78366 19.8016 8.70442 19.8706 8.70442C20.0088 8.62518 20.078 8.46698 20.2162 8.30877C20.2854 8.22953 20.3544 8.15056 20.3544 8.15056L20.7 7.75491C20.7693 7.67567 20.8382 7.5967 20.9075 7.51746C20.9767 7.35925 21.1149 7.20104 21.1839 7.04256C21.2531 6.96332 21.3221 6.88435 21.3913 6.80511C21.5295 6.6469 21.5987 6.40945 21.7369 6.25124C21.8061 6.172 21.8751 6.09303 21.8751 6.01379C22.0133 5.69738 22.2207 5.45992 22.3589 5.14326C22.4281 4.98505 22.4971 4.82684 22.5663 4.7476L24.5019 6.40949L25.6769 7.43825C26.0918 7.83391 26.4374 8.38776 26.5756 8.94191C26.7145 9.17963 26.6453 9.5753 26.5071 9.81273Z" fill="#013220"/>
<path d="M2.17389 14.3237C1.82827 14.0863 1.41345 14.2445 1.206 14.5612L0.099886 16.6187C-0.107533 17.0144 0.030667 17.4893 0.307305 17.7267C0.445505 17.806 0.514724 17.806 0.652924 17.806C0.860343 17.806 1.13675 17.6478 1.27521 17.4103L2.45025 15.4318C2.58869 15.0361 2.51951 14.5612 2.17389 14.3237Z" fill="#013220"/>
<path d="M4.10963 16.6979C3.76401 16.4604 3.34919 16.6186 3.14174 16.9353L2.24307 18.6764C2.03566 19.0721 2.17386 19.547 2.45049 19.7845C2.58869 19.8637 2.65791 19.8637 2.79611 19.8637C3.00353 19.8637 3.27994 19.7055 3.4184 19.4681L4.31706 17.7269C4.59346 17.4099 4.45525 16.9351 4.10963 16.6979Z" fill="#013220"/>
<path d="M6.18361 18.8341C5.83799 18.5967 5.42316 18.7549 5.21571 19.0716L4.31705 20.8127C4.10963 21.2084 4.24783 21.6833 4.52447 21.9208C4.66267 22 4.73189 22 4.87009 22C5.07751 22 5.35391 21.8418 5.49238 21.6043L6.39104 19.8632C6.59822 19.5465 6.52923 19.0716 6.18361 18.8341Z" fill="#013220"/>
<path d="M4.31685 14.0076C4.45505 14.0076 4.66247 13.9283 4.73169 13.8494L5.90673 12.6624C6.18313 12.3459 6.25235 11.8711 5.97595 11.5543C5.69955 11.2379 5.28474 11.1587 5.00805 11.4751L3.83302 12.6621C3.55662 12.9785 3.4874 13.4534 3.7638 13.7701C3.902 13.9283 4.10942 14.0076 4.31685 14.0076Z" fill="#013220"/>
<path d="M5.00794 14.6406C4.73154 14.957 4.66233 15.4319 4.93872 15.7486C5.07692 15.9069 5.28434 15.9861 5.49177 15.9861C5.62997 15.9861 5.83739 15.9069 5.97559 15.8279L6.94349 14.8784C7.21989 14.562 7.28911 14.0871 7.01271 13.7704C6.73631 13.4539 6.32149 13.3747 6.04481 13.6911L5.00794 14.6406Z" fill="#013220"/>
<path d="M7.15089 15.6689L6.18299 16.6184C5.90659 16.9348 5.83737 17.4097 6.11377 17.7264C6.25197 17.8846 6.45939 17.9639 6.66682 17.9639C6.80502 17.9639 7.01244 17.8846 7.15064 17.8057L8.11854 16.8562C8.39494 16.5397 8.46416 16.0649 8.18776 15.7481C7.84214 15.4314 7.42757 15.3522 7.15089 15.6689Z" fill="#013220"/>
<path d="M8.2574 11.4747C8.3956 11.4747 8.46481 11.4747 8.60301 11.3954L9.77805 10.683C10.1237 10.4456 10.2619 9.97067 10.0545 9.65428C9.84703 9.25862 9.43217 9.10041 9.15579 9.33786L7.98093 9.97097C7.63532 10.2084 7.49711 10.6834 7.70454 10.9997C7.77352 11.3164 8.04997 11.4747 8.2574 11.4747Z" fill="#013220"/>
<path d="M9.22529 13.2948L10.1932 12.6617C10.5388 12.4242 10.677 11.9493 10.4696 11.5536C10.2622 11.158 9.84729 10.9998 9.50169 11.2372L8.53379 11.8703C8.18817 12.1078 8.04997 12.5827 8.25739 12.9784C8.39559 13.2158 8.60301 13.374 8.87968 13.374C9.01788 13.453 9.08685 13.374 9.22529 13.2948Z" fill="#013220"/>
<path d="M10.0545 13.2948L9.08665 13.9279C8.74103 14.1653 8.60282 14.6402 8.81025 15.0359C8.94845 15.2733 9.15587 15.4315 9.43254 15.4315C9.57074 15.4315 9.63995 15.4315 9.77815 15.3523L10.746 14.7192C11.0917 14.4817 11.2299 14.0068 11.0224 13.6112C10.815 13.2155 10.4001 13.0573 10.0545 13.2948Z" fill="#013220"/>
</svg>
