<svg width="30" height="27" viewBox="0 0 30 27" fill="none" xmlns="http://www.w3.org/2000/svg">
<path d="M10.3222 4.8531C10.3222 4.8531 0.724365 13.0342 0.724365 17.7979C0.724365 22.5616 5.02405 26.4279 10.3222 26.4279C14.9676 26.4279 18.845 23.4507 19.7278 19.5066C19.8525 18.9544 19.9198 18.3848 19.9198 17.7979C19.9198 13.0342 10.3219 4.85306 10.3219 4.85306L10.3222 4.8531ZM10.3222 23.839C9.79439 23.839 9.36239 23.4507 9.36239 22.9759C9.36239 22.5013 9.79421 22.1129 10.3222 22.1129C12.9712 22.1129 15.121 20.1798 15.121 17.798C15.121 17.3234 15.5528 16.935 16.0808 16.935C16.6087 16.935 17.0407 17.3232 17.0407 17.798C17.0407 21.1292 14.027 23.8391 10.3221 23.8391L10.3222 23.839Z" fill="#013220"/>
<path d="M29.5175 13.483C29.5175 17.9792 25.6976 21.6729 20.8122 22.0784C21.2536 21.2068 21.5608 20.2746 21.7144 19.2996C24.5553 18.6006 26.6381 16.2532 26.6381 13.4833C26.6381 13.0086 26.2063 12.6202 25.6783 12.6202C25.1504 12.6202 24.7184 13.0085 24.7184 13.4833C24.7184 15.2523 23.5282 16.78 21.8295 17.4444C21.5607 13.7594 17.2994 8.98725 14.353 6.09593C16.9829 3.04951 19.9199 0.538452 19.9199 0.538452C19.9199 0.538452 29.5177 8.71957 29.5177 13.4833L29.5175 13.483Z" fill="#013220"/>
</svg>
